<svg height="48pt" viewBox="0 0 48 48" width="48pt" xmlns="http://www.w3.org/2000/svg" xmlns:xlink="http://www.w3.org/1999/xlink"><linearGradient id="a" gradientTransform="matrix(47 0 0 47.058 .5 .471)" gradientUnits="userSpaceOnUse" x1=".67181" x2=".422149" y1=".02057" y2=".960165"><stop offset="0" stop-color="#1a6cff"/><stop offset="1" stop-color="#c522ff"/></linearGradient><path d="m30.003 42.269c2.832-.925 5.434-2.512 7.583-4.654 3.604-3.615 5.636-8.513 5.636-13.615s-2.032-10-5.636-13.615c-3.615-3.604-8.514-5.636-13.615-5.636-1.181 0-2.139-.958-2.139-2.139 0-1.181.958-2.139 2.139-2.139 6.235 0 12.224 2.481 16.641 6.888 4.407 4.417 6.888 10.406 6.888 16.641s-2.481 12.224-6.888 16.641c-4.417 4.407-10.406 6.888-16.641 6.888-5.936 0-11.658-2.246-16.01-6.278-4.353-4.043-7.016-9.583-7.455-15.497-.088-1.181.796-2.209 1.973-2.294 1.178-.086 2.206.798 2.294 1.973.364 4.845 2.535 9.38 6.097 12.684 2.574 2.39 5.736 4.007 9.127 4.711-.001-1.471-.003-2.749-.005-3.119-5.265 1.178-6.16-2.615-6.16-2.615-.861-2.253-2.102-2.854-2.102-2.854-1.718-1.209.129-1.185.129-1.185 1.9.137 2.901 2.011 2.901 2.011 1.688 2.98 4.191 2.121 5.269 1.622.172-1.26.501-2.123 1.041-2.61-4.203-.492-8.07-2.166-8.07-9.639 0-2.128.186-3.87 1.396-5.232-.195-.493-.847-2.476.184-5.16 1.81-.085 3.409 1.896 5.02 2.654 1.731-.504 3.772-.715 5.341-.701 1.587.014 3.699.259 5.159.701 1.218-.855 3.081-2.766 5.06-2.697l.305.043c1.033 2.684.381 4.667.187 5.16 1.213 1.362 1.348 3.104 1.348 5.232 0 7.493-4.126 9.143-8.342 9.625.679.603 1.352 1.793 1.352 3.612 0 .802-.004 2.605-.007 4.593zm-14.984-35.317c1.045-.549 1.448-1.843.899-2.888-.549-1.044-1.843-1.447-2.888-.898-4.449 2.342-8.043 6.053-10.235 10.577-.52 1.063-.079 2.345.984 2.861 1.062.517 2.347.074 2.866-.989 1.797-3.711 4.727-6.738 8.374-8.663z" fill="url(#a)" fill-rule="evenodd"/></svg>