<svg height="96" width="96" xmlns="http://www.w3.org/2000/svg" xmlns:xlink="http://www.w3.org/1999/xlink"><linearGradient id="a" stop-color="#fff"><stop offset="0"/><stop offset="1" stop-opacity="0"/></linearGradient><filter id="b" color-interpolation-filters="sRGB" height="1.384" width="1.384" x="-.192" y="-.192"><feGaussianBlur stdDeviation="5.28"/></filter><linearGradient id="c" gradientUnits="userSpaceOnUse" x1="48" x2="48" xlink:href="#a" y1="20.221" y2="138.66"/><clipPath id="d"><rect height="84" rx="6" width="84" x="6" y="6"/></clipPath><linearGradient id="e" gradientTransform="matrix(1.0059 0 0 .99417 100 0)" gradientUnits="userSpaceOnUse" x1="45.448" x2="45.448" y1="92.54" y2="7.0165"><stop offset="0"/><stop offset="1" stop-opacity=".58824"/></linearGradient><radialGradient id="f" cx="48" cy="90.172" gradientTransform="matrix(1.1573 0 0 .99591 -7.551 .19713)" gradientUnits="userSpaceOnUse" r="42" xlink:href="#a"/><linearGradient id="g" gradientUnits="userSpaceOnUse" x1="36.357" x2="36.357" xlink:href="#a" y1="6" y2="63.893"/><linearGradient id="h" gradientUnits="userSpaceOnUse" x1="47.7222" x2="47.7222" y1="90.4446" y2="4.98728844"><stop offset="0" stop-color="#27429c"/><stop offset="1" stop-color="#5072e1"/></linearGradient><linearGradient id="i" gradientTransform="translate(0 1)" gradientUnits="userSpaceOnUse" x1="32.251" x2="32.251" xlink:href="#e" y1="90" y2="6"/><linearGradient id="j" gradientTransform="matrix(1.0238 0 0 1.0119 -1.1429 .929)" gradientUnits="userSpaceOnUse" x1="32.251" x2="32.251" xlink:href="#e" y1="90" y2="5.9996"/><linearGradient id="k" gradientTransform="matrix(1.0238 0 0 -1.0119 -1.1429 98.071)" gradientUnits="userSpaceOnUse" x1="32.251" x2="32.251" xlink:href="#e" y1="6.1317" y2="90.239"/><g fill="url(#k)"><path d="m12 95.031c-5.5111 0-10.031-4.52-10.031-10.031v-71c0-5.5111 4.5202-10.031 10.031-10.031h72c5.5111 0 10.031 4.5202 10.031 10.031v71c0 5.5111-4.5202 10.031-10.031 10.031z" opacity=".08"/><path d="m12 94.031c-4.9716 0-9.0312-4.0596-9.0312-9.0312v-71c0-4.9718 4.0596-9.0314 9.0312-9.0314h72c4.9716 0 9.0312 4.0596 9.0312 9.0312v71c0 4.9716-4.0596 9.0312-9.0312 9.0312h-72z" opacity=".1"/><path d="m12 93c-4.4091 0-8-3.591-8-8v-71c0-4.4091 3.5909-8 8-8h72c4.4091 0 8 3.5909 8 8v71c0 4.4091-3.5909 8-8 8z" opacity=".2"/></g><rect fill="url(#j)" height="85" opacity=".3" rx="7" width="86" x="5" y="7"/><rect fill="url(#i)" height="84" opacity=".45" rx="6" width="84" x="6" y="7"/><rect fill="url(#h)" height="84" rx="6" width="84" x="6" y="6"/><path d="m5.9884372 83.964467v-40c0-3.324 2.676-6 5.9999998-6h43.099563l-8 34 21.450218 18h-56.549781c-3.3239998 0-5.9999998-2.676-5.9999998-6z" fill="#a8d0ea" fill-opacity=".748971"/><path d="m12 6h32l16 45.999996-54-4v-35.999996c0-3.324 2.676-6 6-6z" fill="#db2b84"/><path d="m60 51.999996-17.179984 15.738442-26.454164-.260723-10.365852-19.477719z" fill="#db7100"/><path d="m12 6c-3.324 0-6 2.676-6 6v72c0 .33472.04135.6507.09375.96875.0487.2956.09704.59692.1875.875.00988.03038.020892.0636.03125.09375.098865.28777.23488.54745.375.8125.14459.27351.31562.53562.5.78125.18438.24564.37378.47347.59375.6875.43995.42806.94291.81453 1.5 1.0938.27854.13961.57347.24695.875.34375-.2562-.10022-.48671-.23627-.71875-.375-.00741-.0044-.023866.0045-.03125 0-.0319-.019-.0622-.042-.0937-.062-.1204-.077-.231-.164-.3437-.25-.1062-.081-.2133-.161-.3126-.25-.1778-.162-.3473-.346-.4999-.531-.1075-.131-.2183-.266-.3124-.407-.0251-.038-.0385-.086-.0626-.125-.0647-.103-.1302-.204-.1874-.312-.1011-.195-.2057-.416-.2813-.625-.008-.022-.0236-.041-.0313-.063-.0318-.092-.0358-.187-.0624-.281-.0304-.107-.0704-.203-.0938-.313-.0729-.341-.125-.698-.125-1.062v-72c0-2.782 2.2182-5 5-5h72c2.7818 0 5 2.2182 5 5v72c0 .3643-.05212.72099-.125 1.0625-.04415.20689-.08838.39766-.15625.59375-.0077.02195-.0233.04069-.03125.0625-.06274.17374-.13838.36745-.21875.53125-.04158.0828-.07904.16995-.125.25-.0546.09721-.12677.18835-.1875.28125-.09411.14096-.20492.276-.3125.40625-.14317.17445-.30314.347-.46875.5-.01117.0102-.01998.02115-.03125.03125-.13839.12556-.28509.23444-.4375.34375-.10257.07315-.20432.15336-.3125.21875-.0074.0045-.02384-.0044-.03125 0-.23204.13873-.46255.27478-.71875.375.30153-.0968.59646-.20414.875-.34375.55709-.27922 1.0601-.66569 1.5-1.0938.21997-.21403.40937-.44186.59375-.6875s.35541-.50774.5-.78125c.14012-.26505.27614-.52473.375-.8125.01041-.03078.02133-.06274.03125-.09375.09046-.27808.1388-.5794.1875-.875.053-.318.094-.634.094-.969v-72c0-3.324-2.676-6-6-6h-72z" fill="url(#g)" opacity=".25"/><path d="m12 90c-3.324 0-6-2.676-6-6v-72c0-.33472.04135-.6507.09375-.96875.0487-.2956.09704-.59692.1875-.875.0099-.03.0209-.063.0313-.094.0989-.2873.2349-.547.375-.812.1446-.2735.3156-.5356.5-.7812.1844-.2457.3738-.4735.5937-.6876.44-.428.943-.8145 1.5-1.0937.2786-.1396.5735-.2469.8748-.3437-.256.1002-.4865.2362-.7185.375-.00741.0044-.023866-.0045-.03125 0-.031933.0193-.062293.04251-.09375.0625-.1204.0767-.23102.16351-.34375.25-.10617.0808-.21328.16111-.3125.25-.1779.1614-.3474.3453-.5.5312-.1075.1303-.2183.2653-.3124.4063-.0251.0383-.0385.0858-.0626.125-.0647.103-.1302.2045-.1874.3124-.1011.1948-.2057.4158-.2813.625-.008.0219-.0236.0406-.0313.0626-.0318.0919-.0358.1868-.0624.2812-.0304.1066-.0704.203-.0938.3125-.0729.3415-.125.6985-.125 1.0625v72c0 2.7818 2.2182 5 5 5h72c2.7818 0 5-2.2182 5-5v-72c0-.364-.052-.721-.125-1.0625-.044-.2069-.088-.3977-.156-.5937-.008-.022-.024-.0407-.031-.0626-.063-.1737-.139-.3674-.219-.5312-.042-.0828-.079-.17-.125-.25-.055-.0972-.127-.1884-.188-.2812-.094-.141-.205-.276-.312-.4063-.143-.1745-.303-.347-.469-.5-.011-.0102-.02-.0211-.031-.0313-.139-.1255-.285-.2344-.438-.3437-.102-.0731-.204-.1534-.312-.2187-.0074-.0045-.02384.0044-.03125 0-.23204-.13873-.46255-.27478-.71875-.375.30153.0968.59646.20414.875.34375.55709.27922 1.0601.66569 1.5 1.0938.21997.21403.40937.44186.59375.6875s.35541.50774.5.78125c.14012.26505.27614.52473.375.8125.01041.03078.02133.06274.03125.09375.09046.27808.1388.5794.1875.875.053.318.094.634.094.969v72c0 3.324-2.676 6-6 6h-72z" fill="url(#f)" opacity=".15"/><rect height="66" rx="12" style="opacity:.1;stroke:#fff;stroke-linecap:round;stroke-width:.5;clip-path:url(#d);filter:url(#b);fill:url(#c)" width="66" x="15" y="15"/><path d="m62.820016 67.738438-31.871319 20.505051-23.2632475-5.083263 8.6804025-15.682511z" fill="#a21eff"/><rect fill="#1a1c27" height="60" rx="4.285714" stroke-width=".714286" width="60" x="17.55022" y="18.998863"/><g fill="#fefefe"><text font-family="sans-serif" font-size="40" letter-spacing="0" word-spacing="0" x="19.784695" y="50.077377"><tspan fill="#fefefe" font-family="Liberation Mono" x="19.784695" y="50.077377">IJ</tspan></text><path d="m24.592934 66.112701h24.305298v5.033641h-24.305298z" fill-opacity=".975309"/></g></svg>