<svg height="48pt" viewBox="0 0 48 48" width="48pt" xmlns="http://www.w3.org/2000/svg" xmlns:xlink="http://www.w3.org/1999/xlink"><linearGradient id="a" gradientTransform="matrix(43.5 0 0 44 5 2)" gradientUnits="userSpaceOnUse" x1=".220786" x2=".902249" y1=".04724" y2=".906146"><stop offset="0" stop-color="#f9d423"/><stop offset=".51562375651" stop-color="#ff4e50"/><stop offset=".99130434783" stop-color="#8a2387"/></linearGradient><path d="m42.94696 41.159588c-.002871 2.74159-2.191285 4.840412-4.70296 4.840412h-28.488c-2.625 0-4.756-2.131-4.756-4.756v-19.244c0-1.104.811-2 1.81-2 .998 0 1.809.896 1.809 2v17.146c0 1.575 1.279 2.854 2.854 2.854h25.054c1.575 0 2.854-1.279 2.854-2.854v-16.146-1-13.146c0-1.575-1.279-2.854-2.854-2.854h-25.054c-1.575 0-2.854 1.279-2.854 2.854v5.146c0 1.104-.811 2-1.809 2-.999 0-1.81-.896-1.81-2v-7.244c0-2.625 2.131-4.756 4.756-4.756h28.488c2.511675 0 4.741663 2.1354107 4.73891 4.7685028zm-8.432914-14.884883v-8.218435c0-.725465-.588783-1.314248-1.314249-1.314248-.725465 0-1.314248.588783-1.314248 1.314248v8.218435l-1.261679-1.261679c-.512557-.512557-1.344914-.512557-1.857471 0-.512557.512557-.512557 1.344915 0 1.857472l2.882585 2.882585c.411798.411798.972544.648362 1.550813.648362.57827 0 1.139016-.236564 1.550814-.648362l2.882585-2.882585c.512557-.512557.512557-1.344915 0-1.857472-.512557-.512557-1.344914-.512557-1.857471 0zm-16.209065 9.742963c-3.504663-26.869089-1.752331-13.434541 0 0zm-4.283544-7.095423c0 .66576-.539844 1.206328-1.205604 1.206328-.66576 0-1.206327-.540568-1.206327-1.206328v-10.752019c0-1.664399.955219-2.060237 2.131878-.883579l4.678409 4.67841c.235187.235186.617275.235186.852462 0l4.67841-4.67841c1.176657-1.176658 2.131878-.78082 2.131878.883579v10.752019c0 .66576-.540568 1.206328-1.206328 1.206328-.665759 0-1.205604-.540568-1.205604-1.206328v-7.942078l-3.971402 3.971401c-.471097.471097-1.235274.471097-1.706371 0l-3.971401-3.971401z" fill="url(#a)" fill-rule="evenodd"/></svg>